Coordinates
version=1
nRows=25
nColumns=33
inDegrees=yes

Units are S.I. units (second, meters, Newtons, ...)
Angles are in degrees.

endheader
time	ground_thorax_rot_x	ground_thorax_rot_y	ground_thorax_rot_z	ground_thorax_tx	ground_thorax_ty	ground_thorax_tz	clav_prot_r	clav_elev_r	scapula_abduction_r	scapula_elevation_r	scapula_upward_rot_r	scapula_winging_r	shoulder_elv_r	plane_of_elev_r	axial_rot_r	elbow_flexion_r	pro_sup_r	wrist_flex_r	wrist_dev_r	clav_prot_l	clav_elev_l	scapula_abduction_l	scapula_elevation_l	scapula_upward_rot_l	scapula_winging_l	shoulder_elv_l	plane_of_elev_l	axial_rot_l	elbow_flexion_l	pro_sup_l	wrist_flex_l	wrist_dev_l	
4.0900	-39.163209	-8.226629	15.066759	-252.977690	847.770782	3.312946	6.162622	-45.000000	36.243312	-45.000000	-39.158795	2416.675495	-1906.680173	145.959241	-120.062481	1453.883944	35.822088	17.996715	2.049609	14.797967	37.377539	-36.667193	-45.000000	-45.000000	86.045788	73.400248	24.307485	-34.569252	2531.644579	20.827795	2.030588	-19.385543	
4.1000	-39.139263	-8.313762	15.164179	-252.841776	847.463694	3.336871	6.280685	-45.000000	36.261160	-45.000000	-39.183650	2416.658577	-1906.747433	145.972345	-120.075628	1453.878678	35.698192	18.016621	2.100386	14.720756	37.335697	-36.591405	-45.000000	-45.000000	86.000617	73.397817	24.315450	-34.495638	2531.637510	20.821819	2.041713	-19.388087	
4.1100	-39.108888	-8.434716	15.288868	-252.690978	847.163292	3.365940	6.399519	-45.000000	36.327226	-45.000000	-39.214431	2416.645876	-1906.799139	146.000695	-120.070133	1453.879322	35.550708	18.070822	2.207287	14.618153	37.261877	-36.517162	-45.000000	-45.000000	85.945164	73.409484	24.267870	-34.419172	2531.655120	20.810026	2.070726	-19.420448	
4.1200	-39.089767	-8.490387	15.373638	-252.504013	846.874473	3.405784	6.463144	-45.000000	36.348576	-45.000000	-39.222612	2416.647521	-1906.843869	146.023774	-120.088454	1453.865711	35.326621	18.107906	2.273867	14.576470	37.231416	-36.483454	-45.000000	-45.000000	85.903858	73.408226	24.267245	-34.327855	2531.661875	20.777042	2.089923	-19.431829	
4.1300	-39.077249	-8.518897	15.440883	-252.281562	846.600531	3.456628	6.498450	-45.000000	36.364739	-45.000000	-39.214244	2416.654209	-1906.881478	146.042246	-120.116270	1453.845228	35.033910	18.137098	2.317394	14.562710	37.214982	-36.473399	-45.000000	-45.000000	85.883545	73.395816	24.289657	-34.218073	2531.668162	20.722569	2.101274	-19.435317	
4.1400	-39.070007	-8.526259	15.499461	-252.020633	846.344727	3.518937	6.508887	-45.000000	36.369628	-45.000000	-39.182091	2416.668064	-1906.904767	146.063711	-120.146158	1453.828623	34.674672	18.179423	2.367219	14.567583	37.212865	-36.486867	-45.000000	-45.000000	85.862983	73.390743	24.302225	-34.102557	2531.687588	20.647230	2.121140	-19.447024	
4.1500	-39.067849	-8.518858	15.542755	-251.722934	846.108839	3.591240	6.511254	-45.000000	36.378926	-45.000000	-39.130235	2416.681770	-1906.926295	146.075202	-120.176770	1453.808040	34.262187	18.214026	2.394586	14.584131	37.214753	-36.508626	-45.000000	-45.000000	85.860517	73.378203	24.336822	-33.974745	2531.701692	20.549598	2.135548	-19.454000	
4.1600	-39.067012	-8.510870	15.586704	-251.390676	845.892604	3.671128	6.515104	-45.000000	36.389252	-45.000000	-39.055124	2416.700730	-1906.937273	146.089293	-120.196184	1453.795009	33.818747	18.269991	2.445142	14.594260	37.219731	-36.536284	-45.000000	-45.000000	85.841861	73.386028	24.341643	-33.855106	2531.725095	20.435210	2.168200	-19.478245	
4.1700	-39.067927	-8.497491	15.618675	-251.023960	845.693978	3.756043	6.520335	-45.000000	36.410328	-45.000000	-38.963479	2416.716569	-1906.952922	146.093596	-120.212351	1453.778973	33.359013	18.314135	2.470728	14.609782	37.221145	-36.564387	-45.000000	-45.000000	85.840263	73.383370	24.372835	-33.726435	2531.734054	20.300281	2.193313	-19.494064	
4.1800	-39.069069	-8.480952	15.649514	-250.620599	845.508946	3.843737	6.527311	-45.000000	36.428586	-45.000000	-38.850511	2416.741629	-1906.961667	146.102188	-120.217721	1453.764096	32.901071	18.374610	2.517998	14.620987	37.230797	-36.598226	-45.000000	-45.000000	85.814524	73.402539	24.378227	-33.611361	2531.743707	20.150117	2.236573	-19.522107	
4.1900	-39.069772	-8.462266	15.670047	-250.176873	845.332159	3.932328	6.533418	-45.000000	36.466314	-45.000000	-38.726238	2416.765048	-1906.977576	146.102973	-120.220397	1453.742525	32.450507	18.420567	2.543244	14.637710	37.229652	-36.628825	-45.000000	-45.000000	85.805144	73.407079	24.417087	-33.486537	2531.733842	19.979142	2.270346	-19.538359	
4.2000	-39.068912	-8.441475	15.691778	-249.687814	845.157288	4.020329	6.541176	-45.000000	36.504963	-45.000000	-38.583047	2416.797385	-1906.986367	146.109218	-120.215424	1453.721311	32.013701	18.478886	2.588420	14.649662	37.236963	-36.660901	-45.000000	-45.000000	85.774092	73.429396	24.436705	-33.371304	2531.726896	19.790472	2.318536	-19.563193	
4.2100	-39.064021	-8.427738	15.714214	-249.148266	844.977946	4.106389	6.547777	-45.000000	36.567949	-45.000000	-38.429050	2416.824058	-1907.000413	146.114099	-120.212055	1453.701319	31.586743	18.526505	2.618555	14.663232	37.229524	-36.687549	-45.000000	-45.000000	85.759818	73.435147	24.480524	-33.240310	2531.713931	19.578275	2.357295	-19.579079	
4.2200	-39.055925	-8.418291	15.743154	-248.553126	844.787952	4.189235	6.561448	-45.000000	36.631530	-45.000000	-38.255226	2416.859439	-1907.009453	146.125423	-120.207132	1453.680908	31.169918	18.586281	2.671749	14.665452	37.233766	-36.709839	-45.000000	-45.000000	85.718731	73.462579	24.500380	-33.114859	2531.707462	19.347294	2.411361	-19.603983	
4.2300	-39.042319	-8.420172	15.774814	-247.897782	844.581793	4.267546	6.577617	-45.000000	36.716704	-45.000000	-38.068473	2416.890474	-1907.027144	146.134327	-120.210018	1453.660732	30.752033	18.639158	2.719094	14.662341	37.221803	-36.720688	-45.000000	-45.000000	85.684423	73.479735	24.540066	-32.971339	2531.692540	19.092597	2.461470	-19.622253	
4.2400	-39.024025	-8.428078	15.813333	-247.178180	844.354727	4.339996	6.603391	-45.000000	36.799124	-45.000000	-37.860537	2416.930176	-1907.043132	146.145988	-120.217953	1453.636409	30.326622	18.703180	2.791213	14.643694	37.222304	-36.727275	-45.000000	-45.000000	85.622360	73.516921	24.557973	-32.825243	2531.681614	18.816586	2.527339	-19.648547	
4.2500	-39.002244	-8.435391	15.850790	-246.390704	844.102781	4.405319	6.631267	-45.000000	36.887257	-45.000000	-37.633941	2416.965208	-1907.068215	146.150393	-120.237850	1453.608275	29.875779	18.763537	2.865382	14.617249	37.210404	-36.743056	-45.000000	-44.999999	85.564795	73.540154	24.587407	-32.659306	2531.668106	18.512347	2.595385	-19.672550	
4.2600	-38.978126	-8.436500	15.889516	-245.531969	843.822570	4.462426	6.661721	-45.000000	36.959581	-45.000000	-37.381034	2417.005861	-1907.091600	146.149955	-120.266210	1453.571279	29.386900	18.832273	2.962766	14.582774	37.208860	-36.778876	-45.000000	-44.999999	85.492371	73.565330	24.600353	-32.486600	2531.660935	18.178403	2.678438	-19.703633	
4.2700	-38.952411	-8.430603	15.926111	-244.598477	843.511190	4.510454	6.685313	-45.000000	37.028073	-45.000000	-37.106233	2417.044001	-1907.122916	146.141599	-120.306049	1453.524824	28.842222	18.897714	3.066304	14.550743	37.196090	-36.836912	-45.000000	-44.999998	85.431247	73.567607	24.627304	-32.296405	2531.651136	17.807389	2.766117	-19.732595	
4.2800	-38.923411	-8.424793	15.967671	-243.586538	843.166039	4.548791	6.704274	-45.000000	37.087614	-45.000000	-36.810120	2417.089567	-1907.153035	146.133148	-120.352907	1453.469812	28.236364	18.969442	3.191596	14.520606	37.191613	-36.907813	-45.000000	-44.999996	85.361267	73.567697	24.645946	-32.100271	2531.646005	17.399529	2.867607	-19.766002	
4.2900	-38.892455	-8.419636	16.011494	-242.492075	842.784683	4.577067	6.712660	-45.000000	37.147449	-45.000000	-36.498162	2417.140238	-1907.190818	146.125414	-120.409131	1453.406033	27.564851	19.039440	3.327447	14.500390	37.182609	-36.992173	-45.000000	-44.999992	85.297893	73.553263	24.675606	-31.892459	2531.637335	16.952162	2.978049	-19.798033	
4.3000	-38.859144	-8.428136	16.063326	-241.310884	842.364684	4.595139	6.707960	-45.000000	37.205952	-45.000000	-36.173068	2417.205220	-1907.229152	146.122882	-120.472051	1453.340318	26.833660	19.113385	3.481906	14.494408	37.181275	-37.074332	-45.000000	-44.999986	85.231429	73.541567	24.706792	-31.680117	2531.625393	16.467675	3.101115	-19.830530	
4.3100	-38.829588	-8.436773	16.112163	-240.038656	841.903397	4.603097	6.684612	-45.000000	37.262841	-45.000000	-35.831706	2417.284247	-1907.279816	146.124605	-120.542407	1453.267282	26.043839	19.184888	3.648976	14.512735	37.184514	-37.164053	-45.000000	-44.999976	85.175562	73.522177	24.760927	-31.466740	2531.600803	15.943652	3.235782	-19.859472	
4.3200	-38.805985	-8.439079	16.152131	-238.671568	841.397801	4.601291	6.637927	-45.000000	37.315981	-45.000000	-35.466060	2417.378941	-1907.338687	146.132537	-120.613542	1453.194278	25.193714	19.258491	3.835199	14.565370	37.204033	-37.263484	-45.000000	-44.999956	85.129107	73.498377	24.836636	-31.258025	2531.568945	15.374387	3.385342	-19.887101	
4.3300	-38.789158	-8.420434	16.176473	-237.206446	840.844378	4.590342	6.574800	-45.000000	37.363927	-45.000000	-35.070462	2417.482619	-1907.412408	146.143152	-120.680836	1453.112145	24.278947	19.328217	4.038032	14.647180	37.233221	-37.385817	-45.000000	-44.999922	85.096118	73.458839	24.943136	-31.051175	2531.528577	14.752640	3.550310	-19.911565	
